# xmcd
#
# Track frame offsets:
#	150
#	12616
#	24319
#	35860
#	52893
#	72876
#	85077
#	97263
#	113876
#	126577
#	137408
#	147129
#	157725
#	168628
#	182952
#	194326
#	203090
#	214249
#	227550
#	241666
#	255169
#	264752
#	275363
#	291634
#	304498
#	314104
#	325777
#	341488
#
# Disc length: 4712 seconds
#
# Revision: 0
# Processed by: cddbd v1.5.2PL0 Copyright (c) Steve Scherf et al.
# Submitted via: VUPlayer 2.49
#
DISCID=a112661c
DTITLE=Various Artist - Country Music Volume 1
DYEAR=2000
DGENRE=Country
TTITLE0=1
TTITLE1=Roy Drusky - Another
TTITLE2=3
TTITLE3=4
TTITLE4=Gary Fjellgaard /Cowboy in Your Heart
TTITLE5=6
TTITLE6=Waylon Jennings - Don't Think Twice
TTITLE7=Dick van Altena - Dust On the Flattop
TTITLE8=9
TTITLE9=10
TTITLE10=Leroy van Dyke - Honeycomb
TTITLE11=12
TTITLE12=13
TTITLE13=14
TTITLE14=15
TTITLE15=16
TTITLE16=17
TTITLE17=Alabama - Patches
TTITLE18=David Allen Coe - Ride Me Down Easy
TTITLE19=20
TTITLE20=Dolly Parton - Something Fishy
TTITLE21=Roy Drusky - Strangers
TTITLE22=The Burrito Brothers - Take A Message To Mary
TTITLE23=Bobby Bare - Tender Years
TTITLE24=25
TTITLE25=26
TTITLE26=27
TTITLE27=28
EXTD=
EXTT0=
EXTT1=
EXTT2=
EXTT3=
EXTT4=
EXTT5=
EXTT6=
EXTT7=
EXTT8=
EXTT9=
EXTT10=
EXTT11=
EXTT12=
EXTT13=
EXTT14=
EXTT15=
EXTT16=
EXTT17=
EXTT18=
EXTT19=
EXTT20=
EXTT21=
EXTT22=
EXTT23=
EXTT24=
EXTT25=
EXTT26=
EXTT27=
PLAYORDER=
